<?xml version="1.0" encoding="UTF-8"?>
<svg xmlns="http://www.w3.org/2000/svg" xmlns:xlink="http://www.w3.org/1999/xlink" width="2000" height="2000" viewBox="0 0 2000 2000">
<defs>
<clipPath id="clip-0">
<path clip-rule="nonzero" d="M 1002 794 L 1107 794 L 1107 1075 L 1002 1075 Z M 1002 794 "/>
</clipPath>
<clipPath id="clip-1">
<path clip-rule="nonzero" d="M 1106.78125 794.179688 C 1089.910156 812.171875 1072.011719 834.660156 1055.851562 862.25 C 1006.871094 945.828125 1001.53125 1028.78125 1002.449219 1074.578125 C 1006.480469 1032.421875 1016.589844 975.078125 1042.390625 911.558594 C 1062.21875 862.710938 1085.910156 823.570312 1106.78125 794.179688 Z M 1106.78125 794.179688 "/>
</clipPath>
<clipPath id="clip-2">
<path clip-rule="nonzero" d="M 1106.78125 794.179688 C 1089.910156 812.171875 1072.011719 834.660156 1055.851562 862.25 C 1006.871094 945.828125 1001.53125 1028.78125 1002.449219 1074.578125 C 1006.480469 1032.421875 1016.589844 975.078125 1042.390625 911.558594 C 1062.21875 862.710938 1085.910156 823.570312 1106.78125 794.179688 "/>
</clipPath>
<linearGradient id="linear-pattern-0" gradientUnits="userSpaceOnUse" x1="0.279736" y1="0" x2="0.525181" y2="0" gradientTransform="matrix(-738, 258, -258, -738, 1351.22, 830.69)">
<stop offset="0" stop-color="rgb(19.229126%, 31.625366%, 64.94751%)" stop-opacity="1"/>
<stop offset="0.015625" stop-color="rgb(19.212341%, 31.544495%, 64.877319%)" stop-opacity="1"/>
<stop offset="0.03125" stop-color="rgb(19.180298%, 31.381226%, 64.735413%)" stop-opacity="1"/>
<stop offset="0.046875" stop-color="rgb(19.148254%, 31.219482%, 64.595032%)" stop-opacity="1"/>
<stop offset="0.0625" stop-color="rgb(19.116211%, 31.057739%, 64.453125%)" stop-opacity="1"/>
<stop offset="0.078125" stop-color="rgb(19.084167%, 30.895996%, 64.312744%)" stop-opacity="1"/>
<stop offset="0.09375" stop-color="rgb(19.05365%, 30.735779%, 64.172363%)" stop-opacity="1"/>
<stop offset="0.109375" stop-color="rgb(19.021606%, 30.575562%, 64.031982%)" stop-opacity="1"/>
<stop offset="0.125" stop-color="rgb(18.991089%, 30.415344%, 63.893127%)" stop-opacity="1"/>
<stop offset="0.140625" stop-color="rgb(18.959045%, 30.255127%, 63.751221%)" stop-opacity="1"/>
<stop offset="0.15625" stop-color="rgb(18.928528%, 30.096436%, 63.612366%)" stop-opacity="1"/>
<stop offset="0.171875" stop-color="rgb(18.896484%, 29.936218%, 63.471985%)" stop-opacity="1"/>
<stop offset="0.1875" stop-color="rgb(18.867493%, 29.777527%, 63.33313%)" stop-opacity="1"/>
<stop offset="0.203125" stop-color="rgb(18.836975%, 29.618835%, 63.192749%)" stop-opacity="1"/>
<stop offset="0.21875" stop-color="rgb(18.806458%, 29.460144%, 63.053894%)" stop-opacity="1"/>
<stop offset="0.234375" stop-color="rgb(18.77594%, 29.302979%, 62.915039%)" stop-opacity="1"/>
<stop offset="0.25" stop-color="rgb(18.746948%, 29.145813%, 62.776184%)" stop-opacity="1"/>
<stop offset="0.265625" stop-color="rgb(18.716431%, 28.988647%, 62.637329%)" stop-opacity="1"/>
<stop offset="0.28125" stop-color="rgb(18.688965%, 28.833008%, 62.498474%)" stop-opacity="1"/>
<stop offset="0.296875" stop-color="rgb(18.658447%, 28.675842%, 62.359619%)" stop-opacity="1"/>
<stop offset="0.3125" stop-color="rgb(18.630981%, 28.520203%, 62.22229%)" stop-opacity="1"/>
<stop offset="0.328125" stop-color="rgb(18.600464%, 28.364563%, 62.083435%)" stop-opacity="1"/>
<stop offset="0.34375" stop-color="rgb(18.572998%, 28.210449%, 61.946106%)" stop-opacity="1"/>
<stop offset="0.359375" stop-color="rgb(18.544006%, 28.05481%, 61.808777%)" stop-opacity="1"/>
<stop offset="0.375" stop-color="rgb(18.516541%, 27.900696%, 61.671448%)" stop-opacity="1"/>
<stop offset="0.390625" stop-color="rgb(18.487549%, 27.746582%, 61.534119%)" stop-opacity="1"/>
<stop offset="0.40625" stop-color="rgb(18.458557%, 27.593994%, 61.39679%)" stop-opacity="1"/>
<stop offset="0.421875" stop-color="rgb(18.432617%, 27.43988%, 61.25946%)" stop-opacity="1"/>
<stop offset="0.4375" stop-color="rgb(18.403625%, 27.285767%, 61.122131%)" stop-opacity="1"/>
<stop offset="0.453125" stop-color="rgb(18.377686%, 27.133179%, 60.986328%)" stop-opacity="1"/>
<stop offset="0.46875" stop-color="rgb(18.35022%, 26.982117%, 60.848999%)" stop-opacity="1"/>
<stop offset="0.484375" stop-color="rgb(18.32428%, 26.829529%, 60.713196%)" stop-opacity="1"/>
<stop offset="0.5" stop-color="rgb(18.296814%, 26.678467%, 60.577393%)" stop-opacity="1"/>
<stop offset="0.515625" stop-color="rgb(18.270874%, 26.527405%, 60.441589%)" stop-opacity="1"/>
<stop offset="0.53125" stop-color="rgb(18.243408%, 26.377869%, 60.305786%)" stop-opacity="1"/>
<stop offset="0.546875" stop-color="rgb(18.218994%, 26.226807%, 60.169983%)" stop-opacity="1"/>
<stop offset="0.5625" stop-color="rgb(18.191528%, 26.077271%, 60.035706%)" stop-opacity="1"/>
<stop offset="0.578125" stop-color="rgb(18.167114%, 25.927734%, 59.899902%)" stop-opacity="1"/>
<stop offset="0.59375" stop-color="rgb(18.139648%, 25.778198%, 59.765625%)" stop-opacity="1"/>
<stop offset="0.609375" stop-color="rgb(18.115234%, 25.628662%, 59.629822%)" stop-opacity="1"/>
<stop offset="0.625" stop-color="rgb(18.089294%, 25.480652%, 59.495544%)" stop-opacity="1"/>
<stop offset="0.640625" stop-color="rgb(18.06488%, 25.332642%, 59.361267%)" stop-opacity="1"/>
<stop offset="0.65625" stop-color="rgb(18.040466%, 25.184631%, 59.22699%)" stop-opacity="1"/>
<stop offset="0.671875" stop-color="rgb(18.016052%, 25.036621%, 59.092712%)" stop-opacity="1"/>
<stop offset="0.6875" stop-color="rgb(17.991638%, 24.890137%, 58.958435%)" stop-opacity="1"/>
<stop offset="0.703125" stop-color="rgb(17.967224%, 24.742126%, 58.824158%)" stop-opacity="1"/>
<stop offset="0.71875" stop-color="rgb(17.94281%, 24.597168%, 58.68988%)" stop-opacity="1"/>
<stop offset="0.734375" stop-color="rgb(17.919922%, 24.450684%, 58.557129%)" stop-opacity="1"/>
<stop offset="0.75" stop-color="rgb(17.895508%, 24.304199%, 58.422852%)" stop-opacity="1"/>
<stop offset="0.765625" stop-color="rgb(17.87262%, 24.159241%, 58.2901%)" stop-opacity="1"/>
<stop offset="0.78125" stop-color="rgb(17.848206%, 24.014282%, 58.157349%)" stop-opacity="1"/>
<stop offset="0.796875" stop-color="rgb(17.826843%, 23.87085%, 58.024597%)" stop-opacity="1"/>
<stop offset="0.8125" stop-color="rgb(17.802429%, 23.725891%, 57.89032%)" stop-opacity="1"/>
<stop offset="0.828125" stop-color="rgb(17.781067%, 23.582458%, 57.759094%)" stop-opacity="1"/>
<stop offset="0.84375" stop-color="rgb(17.758179%, 23.439026%, 57.626343%)" stop-opacity="1"/>
<stop offset="0.859375" stop-color="rgb(17.735291%, 23.295593%, 57.493591%)" stop-opacity="1"/>
<stop offset="0.875" stop-color="rgb(17.712402%, 23.153687%, 57.362366%)" stop-opacity="1"/>
<stop offset="0.890625" stop-color="rgb(17.69104%, 23.010254%, 57.229614%)" stop-opacity="1"/>
<stop offset="0.90625" stop-color="rgb(17.668152%, 22.889709%, 57.086182%)" stop-opacity="1"/>
<stop offset="0.9375" stop-color="rgb(17.631531%, 22.772217%, 56.832886%)" stop-opacity="1"/>
<stop offset="0.96875" stop-color="rgb(17.581177%, 22.636414%, 56.483459%)" stop-opacity="1"/>
<stop offset="1" stop-color="rgb(17.529297%, 22.50061%, 56.135559%)" stop-opacity="1"/>
</linearGradient>
<clipPath id="clip-3">
<path clip-rule="nonzero" d="M 460 752 L 1540 752 L 1540 1210 L 460 1210 Z M 460 752 "/>
</clipPath>
<clipPath id="clip-4">
<path clip-rule="nonzero" d="M 1477.859375 1060.648438 C 1430.300781 1062.511719 1370.371094 1067.878906 1304.050781 1081.441406 C 1194.320312 1103.871094 1115.011719 1138.941406 1066.359375 1164.578125 C 1102.898438 1140.289062 1164.75 1105.089844 1255.03125 1077.660156 C 1355.511719 1047.121094 1446.628906 1039.738281 1501.628906 1037.96875 C 1481.328125 1023.171875 1461.03125 1008.371094 1440.730469 993.570312 C 1383.640625 1003.480469 1300.851562 1022.339844 1213.429688 1059.699219 C 1121.519531 1098.980469 1060.949219 1143.128906 1024.761719 1174.03125 C 1060 1139.5 1112.488281 1096.089844 1188.171875 1054.039062 C 1300.058594 991.871094 1413.421875 960.011719 1488.261719 943.488281 C 1465.53125 927.261719 1442.75 910.890625 1419.929688 894.359375 C 1354.789062 847.179688 1290.910156 799.921875 1228.289062 752.628906 C 1205.398438 764.199219 1177.039062 781.328125 1148.058594 806.488281 C 1109.398438 840.058594 1084.289062 875.199219 1068.691406 901.230469 C 1093.878906 871.691406 1130.421875 836.558594 1180.988281 807.519531 C 1196.621094 798.550781 1211.820312 791.171875 1226.230469 785.070312 L 1371.730469 912.230469 C 1342.769531 921.238281 1216.71875 961.320312 1121.078125 1018.609375 C 1102.621094 1029.671875 1072.238281 1048.050781 1036.71875 1078.519531 C 1022.710938 1090.53125 1010.488281 1102.210938 1000 1112.96875 C 989.507812 1102.210938 977.292969 1090.53125 963.285156 1078.519531 C 927.757812 1048.050781 897.382812 1029.671875 878.917969 1018.609375 C 783.277344 961.320312 657.234375 921.238281 628.269531 912.230469 L 773.769531 785.070312 C 788.550781 791.75 803.664062 799.199219 819.007812 807.519531 C 890.058594 846.058594 945.589844 892.230469 987.988281 935.460938 C 957.019531 897.910156 915.722656 854.800781 862.054688 813.191406 C 830.511719 788.738281 799.886719 768.828125 771.714844 752.628906 C 709.089844 799.921875 645.210938 847.179688 580.074219 894.359375 C 557.253906 910.890625 534.472656 927.261719 511.734375 943.488281 C 586.578125 960.011719 699.941406 991.871094 811.824219 1054.039062 C 887.507812 1096.089844 939.996094 1139.5 975.242188 1174.03125 C 939.050781 1143.128906 878.480469 1098.980469 786.570312 1059.699219 C 699.152344 1022.339844 616.363281 1003.480469 559.273438 993.570312 C 538.972656 1008.371094 518.667969 1023.171875 498.363281 1037.96875 C 553.371094 1039.738281 644.484375 1047.121094 744.972656 1077.660156 C 835.253906 1105.089844 897.101562 1140.289062 933.644531 1164.578125 C 884.988281 1138.941406 805.675781 1103.871094 695.949219 1081.441406 C 629.628906 1067.878906 569.699219 1062.511719 522.136719 1060.648438 C 501.503906 1077.449219 480.867188 1094.238281 460.234375 1111.039062 C 549.949219 1108.671875 691.949219 1113.058594 846.488281 1155.128906 C 906.523438 1171.480469 957.09375 1190.429688 998.582031 1208.730469 C 999.050781 1208.941406 999.535156 1209.148438 1000 1209.351562 C 1000.46875 1209.148438 1000.949219 1208.941406 1001.421875 1208.730469 C 1042.898438 1190.429688 1093.46875 1171.480469 1153.511719 1155.128906 C 1308.050781 1113.058594 1450.050781 1108.671875 1539.769531 1111.039062 C 1519.128906 1094.238281 1498.5 1077.449219 1477.859375 1060.648438 Z M 1477.859375 1060.648438 "/>
</clipPath>
<clipPath id="clip-5">
<path clip-rule="nonzero" d="M 1477.859375 1060.648438 C 1430.300781 1062.511719 1370.371094 1067.878906 1304.050781 1081.441406 C 1194.320312 1103.871094 1115.011719 1138.941406 1066.359375 1164.578125 C 1102.898438 1140.289062 1164.75 1105.089844 1255.03125 1077.660156 C 1355.511719 1047.121094 1446.628906 1039.738281 1501.628906 1037.96875 C 1481.328125 1023.171875 1461.03125 1008.371094 1440.730469 993.570312 C 1383.640625 1003.480469 1300.851562 1022.339844 1213.429688 1059.699219 C 1121.519531 1098.980469 1060.949219 1143.128906 1024.761719 1174.03125 C 1060 1139.5 1112.488281 1096.089844 1188.171875 1054.039062 C 1300.058594 991.871094 1413.421875 960.011719 1488.261719 943.488281 C 1465.53125 927.261719 1442.75 910.890625 1419.929688 894.359375 C 1354.789062 847.179688 1290.910156 799.921875 1228.289062 752.628906 C 1205.398438 764.199219 1177.039062 781.328125 1148.058594 806.488281 C 1109.398438 840.058594 1084.289062 875.199219 1068.691406 901.230469 C 1093.878906 871.691406 1130.421875 836.558594 1180.988281 807.519531 C 1196.621094 798.550781 1211.820312 791.171875 1226.230469 785.070312 L 1371.730469 912.230469 C 1342.769531 921.238281 1216.71875 961.320312 1121.078125 1018.609375 C 1102.621094 1029.671875 1072.238281 1048.050781 1036.71875 1078.519531 C 1022.710938 1090.53125 1010.488281 1102.210938 1000 1112.96875 C 989.507812 1102.210938 977.292969 1090.53125 963.285156 1078.519531 C 927.757812 1048.050781 897.382812 1029.671875 878.917969 1018.609375 C 783.277344 961.320312 657.234375 921.238281 628.269531 912.230469 L 773.769531 785.070312 C 788.550781 791.75 803.664062 799.199219 819.007812 807.519531 C 890.058594 846.058594 945.589844 892.230469 987.988281 935.460938 C 957.019531 897.910156 915.722656 854.800781 862.054688 813.191406 C 830.511719 788.738281 799.886719 768.828125 771.714844 752.628906 C 709.089844 799.921875 645.210938 847.179688 580.074219 894.359375 C 557.253906 910.890625 534.472656 927.261719 511.734375 943.488281 C 586.578125 960.011719 699.941406 991.871094 811.824219 1054.039062 C 887.507812 1096.089844 939.996094 1139.5 975.242188 1174.03125 C 939.050781 1143.128906 878.480469 1098.980469 786.570312 1059.699219 C 699.152344 1022.339844 616.363281 1003.480469 559.273438 993.570312 C 538.972656 1008.371094 518.667969 1023.171875 498.363281 1037.96875 C 553.371094 1039.738281 644.484375 1047.121094 744.972656 1077.660156 C 835.253906 1105.089844 897.101562 1140.289062 933.644531 1164.578125 C 884.988281 1138.941406 805.675781 1103.871094 695.949219 1081.441406 C 629.628906 1067.878906 569.699219 1062.511719 522.136719 1060.648438 C 501.503906 1077.449219 480.867188 1094.238281 460.234375 1111.039062 C 549.949219 1108.671875 691.949219 1113.058594 846.488281 1155.128906 C 906.523438 1171.480469 957.09375 1190.429688 998.582031 1208.730469 C 999.050781 1208.941406 999.535156 1209.148438 1000 1209.351562 C 1000.46875 1209.148438 1000.949219 1208.941406 1001.421875 1208.730469 C 1042.898438 1190.429688 1093.46875 1171.480469 1153.511719 1155.128906 C 1308.050781 1113.058594 1450.050781 1108.671875 1539.769531 1111.039062 C 1519.128906 1094.238281 1498.5 1077.449219 1477.859375 1060.648438 "/>
</clipPath>
<linearGradient id="linear-pattern-1" gradientUnits="userSpaceOnUse" x1="-0.260617" y1="0" x2="1.235651" y2="0" gradientTransform="matrix(-738, 258, -258, -738, 1361.44, 859.93)">
<stop offset="0" stop-color="rgb(22.108459%, 44.499207%, 75.782776%)" stop-opacity="1"/>
<stop offset="0.125" stop-color="rgb(22.108459%, 44.499207%, 75.782776%)" stop-opacity="1"/>
<stop offset="0.15625" stop-color="rgb(22.108459%, 44.499207%, 75.782776%)" stop-opacity="1"/>
<stop offset="0.171875" stop-color="rgb(22.108459%, 44.499207%, 75.782776%)" stop-opacity="1"/>
<stop offset="0.175781" stop-color="rgb(22.058105%, 44.296265%, 75.616455%)" stop-opacity="1"/>
<stop offset="0.179688" stop-color="rgb(22.007751%, 44.091797%, 75.450134%)" stop-opacity="1"/>
<stop offset="0.183594" stop-color="rgb(21.939087%, 43.804932%, 75.213623%)" stop-opacity="1"/>
<stop offset="0.1875" stop-color="rgb(21.870422%, 43.516541%, 74.977112%)" stop-opacity="1"/>
<stop offset="0.191406" stop-color="rgb(21.801758%, 43.229675%, 74.740601%)" stop-opacity="1"/>
<stop offset="0.195312" stop-color="rgb(21.733093%, 42.944336%, 74.505615%)" stop-opacity="1"/>
<stop offset="0.199219" stop-color="rgb(21.664429%, 42.658997%, 74.27063%)" stop-opacity="1"/>
<stop offset="0.203125" stop-color="rgb(21.59729%, 42.375183%, 74.035645%)" stop-opacity="1"/>
<stop offset="0.207031" stop-color="rgb(21.530151%, 42.092896%, 73.802185%)" stop-opacity="1"/>
<stop offset="0.210938" stop-color="rgb(21.463013%, 41.810608%, 73.568726%)" stop-opacity="1"/>
<stop offset="0.214844" stop-color="rgb(21.395874%, 41.529846%, 73.336792%)" stop-opacity="1"/>
<stop offset="0.21875" stop-color="rgb(21.330261%, 41.249084%, 73.104858%)" stop-opacity="1"/>
<stop offset="0.222656" stop-color="rgb(21.264648%, 40.969849%, 72.872925%)" stop-opacity="1"/>
<stop offset="0.226562" stop-color="rgb(21.199036%, 40.690613%, 72.640991%)" stop-opacity="1"/>
<stop offset="0.230469" stop-color="rgb(21.134949%, 40.412903%, 72.410583%)" stop-opacity="1"/>
<stop offset="0.234375" stop-color="rgb(21.070862%, 40.136719%, 72.180176%)" stop-opacity="1"/>
<stop offset="0.238281" stop-color="rgb(21.008301%, 39.860535%, 71.949768%)" stop-opacity="1"/>
<stop offset="0.242188" stop-color="rgb(20.944214%, 39.585876%, 71.720886%)" stop-opacity="1"/>
<stop offset="0.246094" stop-color="rgb(20.881653%, 39.311218%, 71.492004%)" stop-opacity="1"/>
<stop offset="0.25" stop-color="rgb(20.819092%, 39.03656%, 71.263123%)" stop-opacity="1"/>
<stop offset="0.253906" stop-color="rgb(20.758057%, 38.764954%, 71.034241%)" stop-opacity="1"/>
<stop offset="0.257812" stop-color="rgb(20.695496%, 38.493347%, 70.806885%)" stop-opacity="1"/>
<stop offset="0.261719" stop-color="rgb(20.63446%, 38.223267%, 70.579529%)" stop-opacity="1"/>
<stop offset="0.265625" stop-color="rgb(20.573425%, 37.953186%, 70.352173%)" stop-opacity="1"/>
<stop offset="0.269531" stop-color="rgb(20.513916%, 37.683105%, 70.126343%)" stop-opacity="1"/>
<stop offset="0.273438" stop-color="rgb(20.454407%, 37.416077%, 69.900513%)" stop-opacity="1"/>
<stop offset="0.277344" stop-color="rgb(20.394897%, 37.149048%, 69.676208%)" stop-opacity="1"/>
<stop offset="0.28125" stop-color="rgb(20.335388%, 36.882019%, 69.450378%)" stop-opacity="1"/>
<stop offset="0.285156" stop-color="rgb(20.277405%, 36.616516%, 69.226074%)" stop-opacity="1"/>
<stop offset="0.289062" stop-color="rgb(20.219421%, 36.352539%, 69.00177%)" stop-opacity="1"/>
<stop offset="0.292969" stop-color="rgb(20.161438%, 36.088562%, 68.778992%)" stop-opacity="1"/>
<stop offset="0.296875" stop-color="rgb(20.10498%, 35.826111%, 68.556213%)" stop-opacity="1"/>
<stop offset="0.300781" stop-color="rgb(20.048523%, 35.56366%, 68.333435%)" stop-opacity="1"/>
<stop offset="0.304688" stop-color="rgb(19.992065%, 35.302734%, 68.110657%)" stop-opacity="1"/>
<stop offset="0.308594" stop-color="rgb(19.937134%, 35.041809%, 67.889404%)" stop-opacity="1"/>
<stop offset="0.3125" stop-color="rgb(19.880676%, 34.78241%, 67.668152%)" stop-opacity="1"/>
<stop offset="0.316406" stop-color="rgb(19.825745%, 34.524536%, 67.446899%)" stop-opacity="1"/>
<stop offset="0.320312" stop-color="rgb(19.772339%, 34.266663%, 67.227173%)" stop-opacity="1"/>
<stop offset="0.324219" stop-color="rgb(19.717407%, 34.010315%, 67.007446%)" stop-opacity="1"/>
<stop offset="0.328125" stop-color="rgb(19.664001%, 33.753967%, 66.786194%)" stop-opacity="1"/>
<stop offset="0.332031" stop-color="rgb(19.610596%, 33.499146%, 66.567993%)" stop-opacity="1"/>
<stop offset="0.335938" stop-color="rgb(19.558716%, 33.24585%, 66.349792%)" stop-opacity="1"/>
<stop offset="0.339844" stop-color="rgb(19.50531%, 32.992554%, 66.130066%)" stop-opacity="1"/>
<stop offset="0.34375" stop-color="rgb(19.45343%, 32.739258%, 65.913391%)" stop-opacity="1"/>
<stop offset="0.347656" stop-color="rgb(19.40155%, 32.487488%, 65.696716%)" stop-opacity="1"/>
<stop offset="0.351562" stop-color="rgb(19.351196%, 32.237244%, 65.478516%)" stop-opacity="1"/>
<stop offset="0.355469" stop-color="rgb(19.300842%, 31.987%, 65.261841%)" stop-opacity="1"/>
<stop offset="0.359375" stop-color="rgb(19.250488%, 31.738281%, 65.045166%)" stop-opacity="1"/>
<stop offset="0.363281" stop-color="rgb(19.20166%, 31.489563%, 64.830017%)" stop-opacity="1"/>
<stop offset="0.367188" stop-color="rgb(19.152832%, 31.242371%, 64.614868%)" stop-opacity="1"/>
<stop offset="0.371094" stop-color="rgb(19.104004%, 30.995178%, 64.399719%)" stop-opacity="1"/>
<stop offset="0.375" stop-color="rgb(19.055176%, 30.751038%, 64.18457%)" stop-opacity="1"/>
<stop offset="0.378906" stop-color="rgb(19.007874%, 30.505371%, 63.970947%)" stop-opacity="1"/>
<stop offset="0.382812" stop-color="rgb(18.960571%, 30.262756%, 63.757324%)" stop-opacity="1"/>
<stop offset="0.386719" stop-color="rgb(18.913269%, 30.018616%, 63.545227%)" stop-opacity="1"/>
<stop offset="0.390625" stop-color="rgb(18.865967%, 29.776001%, 63.331604%)" stop-opacity="1"/>
<stop offset="0.394531" stop-color="rgb(18.82019%, 29.534912%, 63.119507%)" stop-opacity="1"/>
<stop offset="0.398438" stop-color="rgb(18.774414%, 29.295349%, 62.90741%)" stop-opacity="1"/>
<stop offset="0.402344" stop-color="rgb(18.728638%, 29.055786%, 62.696838%)" stop-opacity="1"/>
<stop offset="0.40625" stop-color="rgb(18.684387%, 28.816223%, 62.484741%)" stop-opacity="1"/>
<stop offset="0.410156" stop-color="rgb(18.640137%, 28.578186%, 62.27417%)" stop-opacity="1"/>
<stop offset="0.414062" stop-color="rgb(18.595886%, 28.341675%, 62.063599%)" stop-opacity="1"/>
<stop offset="0.417969" stop-color="rgb(18.553162%, 28.105164%, 61.853027%)" stop-opacity="1"/>
<stop offset="0.421875" stop-color="rgb(18.508911%, 27.870178%, 61.643982%)" stop-opacity="1"/>
<stop offset="0.425781" stop-color="rgb(18.467712%, 27.636719%, 61.434937%)" stop-opacity="1"/>
<stop offset="0.429688" stop-color="rgb(18.426514%, 27.401733%, 61.225891%)" stop-opacity="1"/>
<stop offset="0.433594" stop-color="rgb(18.383789%, 27.1698%, 61.018372%)" stop-opacity="1"/>
<stop offset="0.4375" stop-color="rgb(18.34259%, 26.937866%, 60.809326%)" stop-opacity="1"/>
<stop offset="0.441406" stop-color="rgb(18.301392%, 26.705933%, 60.601807%)" stop-opacity="1"/>
<stop offset="0.445312" stop-color="rgb(18.261719%, 26.475525%, 60.394287%)" stop-opacity="1"/>
<stop offset="0.449219" stop-color="rgb(18.222046%, 26.246643%, 60.188293%)" stop-opacity="1"/>
<stop offset="0.453125" stop-color="rgb(18.182373%, 26.017761%, 59.9823%)" stop-opacity="1"/>
<stop offset="0.457031" stop-color="rgb(18.1427%, 25.790405%, 59.776306%)" stop-opacity="1"/>
<stop offset="0.460938" stop-color="rgb(18.104553%, 25.564575%, 59.570312%)" stop-opacity="1"/>
<stop offset="0.464844" stop-color="rgb(18.06488%, 25.338745%, 59.365845%)" stop-opacity="1"/>
<stop offset="0.46875" stop-color="rgb(18.028259%, 25.112915%, 59.159851%)" stop-opacity="1"/>
<stop offset="0.472656" stop-color="rgb(17.990112%, 24.888611%, 58.955383%)" stop-opacity="1"/>
<stop offset="0.476562" stop-color="rgb(17.953491%, 24.664307%, 58.752441%)" stop-opacity="1"/>
<stop offset="0.480469" stop-color="rgb(17.918396%, 24.441528%, 58.547974%)" stop-opacity="1"/>
<stop offset="0.484375" stop-color="rgb(17.881775%, 24.220276%, 58.345032%)" stop-opacity="1"/>
<stop offset="0.488281" stop-color="rgb(17.84668%, 24.000549%, 58.143616%)" stop-opacity="1"/>
<stop offset="0.492188" stop-color="rgb(17.811584%, 23.779297%, 57.940674%)" stop-opacity="1"/>
<stop offset="0.496094" stop-color="rgb(17.776489%, 23.55957%, 57.737732%)" stop-opacity="1"/>
<stop offset="0.5" stop-color="rgb(17.74292%, 23.34137%, 57.536316%)" stop-opacity="1"/>
<stop offset="0.503906" stop-color="rgb(17.709351%, 23.124695%, 57.3349%)" stop-opacity="1"/>
<stop offset="0.507812" stop-color="rgb(17.675781%, 22.906494%, 57.133484%)" stop-opacity="1"/>
<stop offset="0.511719" stop-color="rgb(17.637634%, 22.796631%, 56.871033%)" stop-opacity="1"/>
<stop offset="0.515625" stop-color="rgb(17.599487%, 22.685242%, 56.608582%)" stop-opacity="1"/>
<stop offset="0.519531" stop-color="rgb(17.559814%, 22.581482%, 56.344604%)" stop-opacity="1"/>
<stop offset="0.523438" stop-color="rgb(17.521667%, 22.479248%, 56.079102%)" stop-opacity="1"/>
<stop offset="0.527344" stop-color="rgb(17.481995%, 22.377014%, 55.815125%)" stop-opacity="1"/>
<stop offset="0.53125" stop-color="rgb(17.442322%, 22.273254%, 55.551147%)" stop-opacity="1"/>
<stop offset="0.535156" stop-color="rgb(17.404175%, 22.171021%, 55.28717%)" stop-opacity="1"/>
<stop offset="0.539062" stop-color="rgb(17.364502%, 22.068787%, 55.024719%)" stop-opacity="1"/>
<stop offset="0.542969" stop-color="rgb(17.324829%, 21.968079%, 54.763794%)" stop-opacity="1"/>
<stop offset="0.546875" stop-color="rgb(17.285156%, 21.865845%, 54.501343%)" stop-opacity="1"/>
<stop offset="0.550781" stop-color="rgb(17.247009%, 21.763611%, 54.241943%)" stop-opacity="1"/>
<stop offset="0.554688" stop-color="rgb(17.207336%, 21.662903%, 53.981018%)" stop-opacity="1"/>
<stop offset="0.558594" stop-color="rgb(17.167664%, 21.562195%, 53.721619%)" stop-opacity="1"/>
<stop offset="0.5625" stop-color="rgb(17.127991%, 21.461487%, 53.463745%)" stop-opacity="1"/>
<stop offset="0.566406" stop-color="rgb(17.088318%, 21.360779%, 53.205872%)" stop-opacity="1"/>
<stop offset="0.570312" stop-color="rgb(17.048645%, 21.260071%, 52.947998%)" stop-opacity="1"/>
<stop offset="0.574219" stop-color="rgb(17.008972%, 21.160889%, 52.69165%)" stop-opacity="1"/>
<stop offset="0.578125" stop-color="rgb(16.969299%, 21.060181%, 52.435303%)" stop-opacity="1"/>
<stop offset="0.582031" stop-color="rgb(16.928101%, 20.960999%, 52.180481%)" stop-opacity="1"/>
<stop offset="0.585938" stop-color="rgb(16.888428%, 20.861816%, 51.924133%)" stop-opacity="1"/>
<stop offset="0.589844" stop-color="rgb(16.848755%, 20.762634%, 51.669312%)" stop-opacity="1"/>
<stop offset="0.59375" stop-color="rgb(16.807556%, 20.661926%, 51.416016%)" stop-opacity="1"/>
<stop offset="0.597656" stop-color="rgb(16.767883%, 20.56427%, 51.16272%)" stop-opacity="1"/>
<stop offset="0.601563" stop-color="rgb(16.72821%, 20.465088%, 50.91095%)" stop-opacity="1"/>
<stop offset="0.605469" stop-color="rgb(16.687012%, 20.367432%, 50.65918%)" stop-opacity="1"/>
<stop offset="0.609375" stop-color="rgb(16.647339%, 20.26825%, 50.40741%)" stop-opacity="1"/>
<stop offset="0.613281" stop-color="rgb(16.60614%, 20.170593%, 50.157166%)" stop-opacity="1"/>
<stop offset="0.617188" stop-color="rgb(16.566467%, 20.072937%, 49.906921%)" stop-opacity="1"/>
<stop offset="0.621094" stop-color="rgb(16.525269%, 19.975281%, 49.658203%)" stop-opacity="1"/>
<stop offset="0.625" stop-color="rgb(16.485596%, 19.877625%, 49.409485%)" stop-opacity="1"/>
<stop offset="0.628906" stop-color="rgb(16.444397%, 19.781494%, 49.162292%)" stop-opacity="1"/>
<stop offset="0.632812" stop-color="rgb(16.403198%, 19.683838%, 48.913574%)" stop-opacity="1"/>
<stop offset="0.636719" stop-color="rgb(16.363525%, 19.587708%, 48.667908%)" stop-opacity="1"/>
<stop offset="0.640625" stop-color="rgb(16.322327%, 19.491577%, 48.422241%)" stop-opacity="1"/>
<stop offset="0.644531" stop-color="rgb(16.282654%, 19.393921%, 48.176575%)" stop-opacity="1"/>
<stop offset="0.648437" stop-color="rgb(16.241455%, 19.297791%, 47.930908%)" stop-opacity="1"/>
<stop offset="0.652344" stop-color="rgb(16.200256%, 19.20166%, 47.688293%)" stop-opacity="1"/>
<stop offset="0.65625" stop-color="rgb(16.159058%, 19.107056%, 47.444153%)" stop-opacity="1"/>
<stop offset="0.660156" stop-color="rgb(16.117859%, 19.010925%, 47.201538%)" stop-opacity="1"/>
<stop offset="0.664062" stop-color="rgb(16.07666%, 18.916321%, 46.958923%)" stop-opacity="1"/>
<stop offset="0.667969" stop-color="rgb(16.035461%, 18.821716%, 46.717834%)" stop-opacity="1"/>
<stop offset="0.671875" stop-color="rgb(15.994263%, 18.725586%, 46.47522%)" stop-opacity="1"/>
<stop offset="0.675781" stop-color="rgb(15.953064%, 18.630981%, 46.235657%)" stop-opacity="1"/>
<stop offset="0.679687" stop-color="rgb(15.910339%, 18.536377%, 45.994568%)" stop-opacity="1"/>
<stop offset="0.683594" stop-color="rgb(15.869141%, 18.443298%, 45.756531%)" stop-opacity="1"/>
<stop offset="0.6875" stop-color="rgb(15.827942%, 18.348694%, 45.516968%)" stop-opacity="1"/>
<stop offset="0.691406" stop-color="rgb(15.785217%, 18.255615%, 45.280457%)" stop-opacity="1"/>
<stop offset="0.695312" stop-color="rgb(15.744019%, 18.161011%, 45.042419%)" stop-opacity="1"/>
<stop offset="0.699219" stop-color="rgb(15.70282%, 18.067932%, 44.805908%)" stop-opacity="1"/>
<stop offset="0.703125" stop-color="rgb(15.660095%, 17.974854%, 44.569397%)" stop-opacity="1"/>
<stop offset="0.707031" stop-color="rgb(15.618896%, 17.881775%, 44.332886%)" stop-opacity="1"/>
<stop offset="0.710937" stop-color="rgb(15.576172%, 17.788696%, 44.0979%)" stop-opacity="1"/>
<stop offset="0.714844" stop-color="rgb(15.533447%, 17.697144%, 43.864441%)" stop-opacity="1"/>
<stop offset="0.71875" stop-color="rgb(15.490723%, 17.604065%, 43.629456%)" stop-opacity="1"/>
<stop offset="0.722656" stop-color="rgb(15.449524%, 17.512512%, 43.397522%)" stop-opacity="1"/>
<stop offset="0.726563" stop-color="rgb(15.406799%, 17.419434%, 43.164062%)" stop-opacity="1"/>
<stop offset="0.730469" stop-color="rgb(15.364075%, 17.327881%, 42.932129%)" stop-opacity="1"/>
<stop offset="0.734375" stop-color="rgb(15.32135%, 17.236328%, 42.700195%)" stop-opacity="1"/>
<stop offset="0.738281" stop-color="rgb(15.280151%, 17.146301%, 42.471313%)" stop-opacity="1"/>
<stop offset="0.742187" stop-color="rgb(15.237427%, 17.054749%, 42.240906%)" stop-opacity="1"/>
<stop offset="0.746094" stop-color="rgb(15.194702%, 16.964722%, 42.012024%)" stop-opacity="1"/>
<stop offset="0.75" stop-color="rgb(15.151978%, 16.873169%, 41.781616%)" stop-opacity="1"/>
<stop offset="0.753906" stop-color="rgb(15.109253%, 16.783142%, 41.55426%)" stop-opacity="1"/>
<stop offset="0.757813" stop-color="rgb(15.065002%, 16.691589%, 41.325378%)" stop-opacity="1"/>
<stop offset="0.761719" stop-color="rgb(15.022278%, 16.601562%, 41.099548%)" stop-opacity="1"/>
<stop offset="0.765625" stop-color="rgb(14.979553%, 16.511536%, 40.872192%)" stop-opacity="1"/>
<stop offset="0.769531" stop-color="rgb(14.936829%, 16.423035%, 40.647888%)" stop-opacity="1"/>
<stop offset="0.773437" stop-color="rgb(14.892578%, 16.333008%, 40.422058%)" stop-opacity="1"/>
<stop offset="0.777344" stop-color="rgb(14.849854%, 16.244507%, 40.197754%)" stop-opacity="1"/>
<stop offset="0.78125" stop-color="rgb(14.807129%, 16.15448%, 39.97345%)" stop-opacity="1"/>
<stop offset="0.785156" stop-color="rgb(14.762878%, 16.065979%, 39.750671%)" stop-opacity="1"/>
<stop offset="0.789063" stop-color="rgb(14.720154%, 15.977478%, 39.527893%)" stop-opacity="1"/>
<stop offset="0.792969" stop-color="rgb(14.675903%, 15.888977%, 39.306641%)" stop-opacity="1"/>
<stop offset="0.796875" stop-color="rgb(14.633179%, 15.800476%, 39.083862%)" stop-opacity="1"/>
<stop offset="0.800781" stop-color="rgb(14.588928%, 15.711975%, 38.86261%)" stop-opacity="1"/>
<stop offset="0.804688" stop-color="rgb(14.544678%, 15.625%, 38.642883%)" stop-opacity="1"/>
<stop offset="0.808594" stop-color="rgb(14.501953%, 15.536499%, 38.423157%)" stop-opacity="1"/>
<stop offset="0.8125" stop-color="rgb(14.457703%, 15.449524%, 38.20343%)" stop-opacity="1"/>
<stop offset="0.816406" stop-color="rgb(14.414978%, 15.362549%, 37.985229%)" stop-opacity="1"/>
<stop offset="0.820312" stop-color="rgb(14.370728%, 15.275574%, 37.767029%)" stop-opacity="1"/>
<stop offset="0.824219" stop-color="rgb(14.326477%, 15.188599%, 37.550354%)" stop-opacity="1"/>
<stop offset="0.828125" stop-color="rgb(14.282227%, 15.101624%, 37.333679%)" stop-opacity="1"/>
<stop offset="0.832031" stop-color="rgb(14.237976%, 15.014648%, 37.117004%)" stop-opacity="1"/>
<stop offset="0.835938" stop-color="rgb(14.193726%, 14.929199%, 36.901855%)" stop-opacity="1"/>
<stop offset="0.839844" stop-color="rgb(14.155579%, 14.855957%, 36.720276%)" stop-opacity="1"/>
<stop offset="0.84375" stop-color="rgb(14.117432%, 14.784241%, 36.538696%)" stop-opacity="1"/>
<stop offset="0.875" stop-color="rgb(14.117432%, 14.784241%, 36.538696%)" stop-opacity="1"/>
<stop offset="1" stop-color="rgb(14.117432%, 14.784241%, 36.538696%)" stop-opacity="1"/>
</linearGradient>
</defs>
<rect x="-200" y="-200" width="2400" height="2400" fill="rgb(96.551514%, 96.488953%, 96.504211%)" fill-opacity="1"/>
<path fill-rule="nonzero" fill="rgb(91.363525%, 91.20636%, 91.246033%)" fill-opacity="1" d="M 1354.320312 1472.640625 L 1354.320312 1477.441406 L 1670.488281 1477.441406 L 1670.488281 1472.640625 L 1354.320312 1472.640625 "/>
<path fill-rule="nonzero" fill="rgb(91.363525%, 91.20636%, 91.246033%)" fill-opacity="1" d="M 1354.320312 1496.890625 L 1670.488281 1496.890625 L 1670.488281 1492.089844 L 1354.320312 1492.089844 L 1354.320312 1496.890625 "/>
<path fill-rule="nonzero" fill="rgb(91.363525%, 91.20636%, 91.246033%)" fill-opacity="1" d="M 1354.320312 1516.339844 L 1670.488281 1516.339844 L 1670.488281 1511.539062 L 1354.320312 1511.539062 L 1354.320312 1516.339844 "/>
<path fill-rule="nonzero" fill="rgb(91.363525%, 91.20636%, 91.246033%)" fill-opacity="1" d="M 329.511719 1472.640625 L 329.511719 1477.441406 L 645.683594 1477.441406 L 645.683594 1472.640625 L 329.511719 1472.640625 "/>
<path fill-rule="nonzero" fill="rgb(91.363525%, 91.20636%, 91.246033%)" fill-opacity="1" d="M 329.511719 1496.890625 L 645.683594 1496.890625 L 645.683594 1492.089844 L 329.511719 1492.089844 L 329.511719 1496.890625 "/>
<path fill-rule="nonzero" fill="rgb(91.363525%, 91.20636%, 91.246033%)" fill-opacity="1" d="M 329.511719 1516.339844 L 645.683594 1516.339844 L 645.683594 1511.539062 L 329.511719 1511.539062 L 329.511719 1516.339844 "/>
<path fill-rule="nonzero" fill="rgb(74.113464%, 73.643494%, 73.75946%)" fill-opacity="1" d="M 703.773438 1498.679688 L 703.773438 1515.859375 L 698.390625 1515.859375 L 698.390625 1498.679688 L 682.308594 1473.121094 L 688.1875 1473.121094 L 701 1493.878906 L 701.164062 1493.878906 L 713.976562 1473.121094 L 719.851562 1473.121094 L 703.773438 1498.679688 "/>
<path fill-rule="nonzero" fill="rgb(74.113464%, 73.643494%, 73.75946%)" fill-opacity="1" d="M 759.605469 1494.519531 C 759.605469 1491.648438 759.21875 1489.109375 758.4375 1486.921875 C 757.660156 1484.730469 756.585938 1482.890625 755.21875 1481.421875 C 753.847656 1479.949219 752.234375 1478.839844 750.378906 1478.078125 C 748.519531 1477.328125 746.519531 1476.949219 744.386719 1476.949219 C 742.25 1476.949219 740.253906 1477.328125 738.394531 1478.078125 C 736.535156 1478.839844 734.921875 1479.949219 733.554688 1481.421875 C 732.183594 1482.890625 731.109375 1484.730469 730.332031 1486.921875 C 729.550781 1489.109375 729.164062 1491.648438 729.164062 1494.519531 C 729.164062 1497.398438 729.558594 1499.929688 730.347656 1502.109375 C 731.136719 1504.289062 732.21875 1506.121094 733.585938 1507.589844 C 734.953125 1509.058594 736.566406 1510.171875 738.425781 1510.910156 C 740.285156 1511.660156 742.292969 1512.03125 744.453125 1512.03125 C 746.589844 1512.03125 748.574219 1511.660156 750.410156 1510.910156 C 752.246094 1510.171875 753.847656 1509.058594 755.21875 1507.589844 C 756.585938 1506.121094 757.660156 1504.289062 758.4375 1502.109375 C 759.21875 1499.929688 759.605469 1497.398438 759.605469 1494.519531 Z M 764.957031 1494.519531 C 764.957031 1497.761719 764.476562 1500.730469 763.515625 1503.429688 C 762.554688 1506.140625 761.175781 1508.46875 759.386719 1510.429688 C 757.597656 1512.390625 755.441406 1513.921875 752.917969 1515.019531 C 750.394531 1516.109375 747.574219 1516.660156 744.449219 1516.660156 C 741.21875 1516.660156 738.324219 1516.109375 735.769531 1515.019531 C 733.214844 1513.921875 731.054688 1512.390625 729.285156 1510.429688 C 727.515625 1508.46875 726.160156 1506.140625 725.222656 1503.429688 C 724.285156 1500.730469 723.8125 1497.761719 723.8125 1494.519531 C 723.8125 1491.261719 724.300781 1488.28125 725.273438 1485.558594 C 726.242188 1482.851562 727.617188 1480.511719 729.398438 1478.550781 C 731.179688 1476.589844 733.335938 1475.058594 735.867188 1473.960938 C 738.402344 1472.871094 741.238281 1472.320312 744.386719 1472.320312 C 747.59375 1472.320312 750.472656 1472.871094 753.015625 1473.960938 C 755.558594 1475.058594 757.714844 1476.589844 759.484375 1478.550781 C 761.253906 1480.511719 762.609375 1482.851562 763.546875 1485.558594 C 764.484375 1488.28125 764.957031 1491.261719 764.957031 1494.519531 "/>
<path fill-rule="nonzero" fill="rgb(74.113464%, 73.643494%, 73.75946%)" fill-opacity="1" d="M 791.933594 1512.03125 C 793.539062 1512.03125 794.964844 1511.851562 796.207031 1511.488281 C 797.453125 1511.121094 798.535156 1510.609375 799.460938 1509.949219 C 800.386719 1509.289062 801.15625 1508.5 801.773438 1507.570312 C 802.386719 1506.648438 802.859375 1505.621094 803.191406 1504.488281 C 803.410156 1503.789062 803.566406 1503 803.652344 1502.140625 C 803.742188 1501.28125 803.785156 1500.441406 803.785156 1499.628906 L 803.785156 1473.121094 L 809.167969 1473.121094 L 809.167969 1499.511719 C 809.167969 1500.511719 809.113281 1501.550781 809.003906 1502.640625 C 808.894531 1503.71875 808.714844 1504.730469 808.476562 1505.671875 C 808.054688 1507.25 807.429688 1508.710938 806.59375 1510.050781 C 805.757812 1511.390625 804.664062 1512.550781 803.324219 1513.53125 C 801.980469 1514.511719 800.367188 1515.28125 798.488281 1515.828125 C 796.605469 1516.378906 794.398438 1516.660156 791.867188 1516.660156 C 789.445312 1516.660156 787.320312 1516.410156 785.492188 1515.890625 C 783.664062 1515.378906 782.097656 1514.679688 780.789062 1513.769531 C 779.476562 1512.871094 778.40625 1511.789062 777.570312 1510.539062 C 776.730469 1509.300781 776.082031 1507.941406 775.621094 1506.46875 C 775.289062 1505.398438 775.054688 1504.269531 774.910156 1503.050781 C 774.769531 1501.839844 774.695312 1500.660156 774.695312 1499.511719 L 774.695312 1473.121094 L 780.078125 1473.121094 L 780.078125 1499.628906 C 780.078125 1500.589844 780.148438 1501.578125 780.292969 1502.589844 C 780.4375 1503.601562 780.660156 1504.519531 780.96875 1505.351562 C 781.738281 1507.421875 783.023438 1509.050781 784.816406 1510.238281 C 786.609375 1511.429688 788.980469 1512.03125 791.933594 1512.03125 "/>
<path fill-rule="nonzero" fill="rgb(74.113464%, 73.643494%, 73.75946%)" fill-opacity="1" d="M 825.609375 1477.808594 L 825.609375 1493.46875 L 830.925781 1493.46875 C 832.578125 1493.46875 833.988281 1493.410156 835.152344 1493.308594 C 836.320312 1493.199219 837.367188 1493.011719 838.289062 1492.730469 C 840.160156 1492.179688 841.601562 1491.289062 842.617188 1490.078125 C 843.628906 1488.871094 844.136719 1487.28125 844.136719 1485.320312 C 844.113281 1483.488281 843.628906 1482.011719 842.683594 1480.898438 C 841.734375 1479.78125 840.425781 1478.96875 838.753906 1478.480469 C 837.960938 1478.25 837.011719 1478.078125 835.914062 1477.96875 C 834.8125 1477.871094 833.414062 1477.808594 831.71875 1477.808594 Z M 825.609375 1498.160156 L 825.609375 1515.859375 L 820.230469 1515.859375 L 820.230469 1473.121094 L 831.675781 1473.121094 C 833.609375 1473.121094 835.253906 1473.191406 836.605469 1473.320312 C 837.957031 1473.460938 839.195312 1473.679688 840.316406 1473.980469 C 843.394531 1474.789062 845.746094 1476.171875 847.371094 1478.121094 C 849 1480.070312 849.8125 1482.5 849.8125 1485.421875 C 849.8125 1487.140625 849.527344 1488.691406 848.957031 1490.050781 C 848.382812 1491.410156 847.578125 1492.589844 846.546875 1493.601562 C 845.511719 1494.601562 844.273438 1495.421875 842.832031 1496.058594 C 841.390625 1496.691406 839.785156 1497.160156 838.027344 1497.460938 L 838.027344 1497.589844 L 851.101562 1515.859375 L 845.71875 1515.859375 L 832.117188 1498.160156 L 825.609375 1498.160156 "/>
<path fill-rule="nonzero" fill="rgb(74.113464%, 73.643494%, 73.75946%)" fill-opacity="1" d="M 889.964844 1484.429688 C 889.964844 1485.679688 890.226562 1486.71875 890.753906 1487.539062 C 891.28125 1488.359375 891.988281 1489.039062 892.878906 1489.570312 C 893.769531 1490.101562 894.800781 1490.539062 895.972656 1490.878906 C 897.148438 1491.21875 898.371094 1491.539062 899.644531 1491.839844 C 901.355469 1492.238281 903.042969 1492.691406 904.699219 1493.179688 C 906.355469 1493.671875 907.832031 1494.351562 909.128906 1495.210938 C 910.421875 1496.070312 911.472656 1497.191406 912.273438 1498.578125 C 913.074219 1499.960938 913.472656 1501.738281 913.472656 1503.910156 C 913.472656 1506.128906 913.039062 1508.039062 912.171875 1509.648438 C 911.304688 1511.261719 910.105469 1512.578125 908.574219 1513.609375 C 907.042969 1514.640625 905.230469 1515.410156 903.140625 1515.910156 C 901.046875 1516.410156 898.757812 1516.660156 896.269531 1516.660156 C 895.128906 1516.660156 893.953125 1516.589844 892.753906 1516.449219 C 891.554688 1516.308594 890.410156 1516.128906 889.320312 1515.890625 C 888.230469 1515.660156 887.246094 1515.390625 886.367188 1515.101562 C 885.484375 1514.800781 884.792969 1514.5 884.285156 1514.199219 L 884.285156 1509.441406 C 885.078125 1509.820312 885.96875 1510.179688 886.960938 1510.5 C 887.949219 1510.808594 888.972656 1511.089844 890.03125 1511.308594 C 891.089844 1511.53125 892.15625 1511.710938 893.234375 1511.839844 C 894.3125 1511.96875 895.324219 1512.03125 896.269531 1512.03125 C 897.8125 1512.03125 899.28125 1511.898438 900.679688 1511.648438 C 902.078125 1511.390625 903.304688 1510.960938 904.359375 1510.371094 C 905.417969 1509.769531 906.253906 1508.960938 906.871094 1507.921875 C 907.484375 1506.890625 907.796875 1505.601562 907.796875 1504.039062 C 907.796875 1502.761719 907.523438 1501.710938 906.984375 1500.878906 C 906.445312 1500.050781 905.726562 1499.359375 904.824219 1498.820312 C 903.921875 1498.28125 902.882812 1497.828125 901.703125 1497.488281 C 900.527344 1497.148438 899.285156 1496.828125 897.988281 1496.53125 C 896.269531 1496.148438 894.59375 1495.71875 892.953125 1495.238281 C 891.3125 1494.761719 889.851562 1494.101562 888.5625 1493.238281 C 887.273438 1492.390625 886.238281 1491.289062 885.457031 1489.949219 C 884.675781 1488.609375 884.285156 1486.898438 884.285156 1484.808594 C 884.285156 1482.640625 884.695312 1480.769531 885.515625 1479.199219 C 886.339844 1477.640625 887.449219 1476.339844 888.851562 1475.320312 C 890.253906 1474.300781 891.867188 1473.539062 893.695312 1473.050781 C 895.523438 1472.558594 897.472656 1472.320312 899.539062 1472.320312 C 901.894531 1472.320312 904.089844 1472.539062 906.128906 1472.96875 C 908.164062 1473.410156 910.027344 1473.980469 911.722656 1474.679688 L 911.722656 1479.511719 C 909.898438 1478.761719 908.011719 1478.148438 906.0625 1477.691406 C 904.113281 1477.21875 902.027344 1476.96875 899.804688 1476.949219 C 898.132812 1476.949219 896.679688 1477.128906 895.445312 1477.480469 C 894.214844 1477.828125 893.191406 1478.328125 892.375 1478.980469 C 891.5625 1479.628906 890.957031 1480.421875 890.558594 1481.339844 C 890.164062 1482.269531 889.964844 1483.300781 889.964844 1484.429688 "/>
<path fill-rule="nonzero" fill="rgb(74.113464%, 73.643494%, 73.75946%)" fill-opacity="1" d="M 928.367188 1473.121094 L 928.367188 1511.171875 L 949.925781 1511.171875 L 949.925781 1515.859375 L 922.984375 1515.859375 L 922.984375 1473.121094 L 928.367188 1473.121094 "/>
<path fill-rule="nonzero" fill="rgb(74.113464%, 73.643494%, 73.75946%)" fill-opacity="1" d="M 989.683594 1494.519531 C 989.683594 1491.648438 989.292969 1489.109375 988.511719 1486.921875 C 987.734375 1484.730469 986.660156 1482.890625 985.292969 1481.421875 C 983.925781 1479.949219 982.308594 1478.839844 980.453125 1478.078125 C 978.59375 1477.328125 976.597656 1476.949219 974.460938 1476.949219 C 972.324219 1476.949219 970.328125 1477.328125 968.46875 1478.078125 C 966.609375 1478.839844 964.996094 1479.949219 963.628906 1481.421875 C 962.257812 1482.890625 961.1875 1484.730469 960.40625 1486.921875 C 959.628906 1489.109375 959.238281 1491.648438 959.238281 1494.519531 C 959.238281 1497.398438 959.632812 1499.929688 960.425781 1502.109375 C 961.214844 1504.289062 962.292969 1506.121094 963.660156 1507.589844 C 965.03125 1509.058594 966.644531 1510.171875 968.503906 1510.910156 C 970.359375 1511.660156 972.367188 1512.03125 974.527344 1512.03125 C 976.664062 1512.03125 978.648438 1511.660156 980.484375 1510.910156 C 982.320312 1510.171875 983.925781 1509.058594 985.292969 1507.589844 C 986.660156 1506.121094 987.734375 1504.289062 988.511719 1502.109375 C 989.292969 1499.929688 989.683594 1497.398438 989.683594 1494.519531 Z M 995.03125 1494.519531 C 995.03125 1497.761719 994.550781 1500.730469 993.589844 1503.429688 C 992.628906 1506.140625 991.253906 1508.46875 989.460938 1510.429688 C 987.671875 1512.390625 985.515625 1513.921875 982.992188 1515.019531 C 980.472656 1516.109375 977.648438 1516.660156 974.527344 1516.660156 C 971.292969 1516.660156 968.398438 1516.109375 965.84375 1515.019531 C 963.289062 1513.921875 961.128906 1512.390625 959.359375 1510.429688 C 957.589844 1508.46875 956.238281 1506.140625 955.296875 1503.429688 C 954.359375 1500.730469 953.890625 1497.761719 953.890625 1494.519531 C 953.890625 1491.261719 954.375 1488.28125 955.347656 1485.558594 C 956.320312 1482.851562 957.695312 1480.511719 959.472656 1478.550781 C 961.253906 1476.589844 963.410156 1475.058594 965.941406 1473.960938 C 968.476562 1472.871094 971.316406 1472.320312 974.460938 1472.320312 C 977.671875 1472.320312 980.546875 1472.871094 983.089844 1473.960938 C 985.636719 1475.058594 987.789062 1476.589844 989.5625 1478.550781 C 991.328125 1480.511719 992.683594 1482.851562 993.621094 1485.558594 C 994.5625 1488.28125 995.03125 1491.261719 995.03125 1494.519531 "/>
<path fill-rule="nonzero" fill="rgb(74.113464%, 73.643494%, 73.75946%)" fill-opacity="1" d="M 1033.828125 1498.578125 L 1023.761719 1498.578125 L 1023.761719 1493.878906 L 1039.210938 1493.878906 L 1039.210938 1514.550781 C 1038.75 1514.789062 1038.070312 1515.03125 1037.179688 1515.269531 C 1036.289062 1515.519531 1035.269531 1515.75 1034.121094 1515.960938 C 1032.980469 1516.171875 1031.75 1516.339844 1030.441406 1516.46875 C 1029.128906 1516.601562 1027.839844 1516.660156 1026.558594 1516.660156 C 1022.78125 1516.660156 1019.441406 1516.160156 1016.539062 1515.160156 C 1013.648438 1514.160156 1011.21875 1512.738281 1009.261719 1510.910156 C 1007.300781 1509.078125 1005.820312 1506.851562 1004.800781 1504.230469 C 1003.789062 1501.609375 1003.289062 1498.699219 1003.289062 1495.480469 C 1003.289062 1491.988281 1003.839844 1488.808594 1004.949219 1485.960938 C 1006.058594 1483.109375 1007.671875 1480.671875 1009.769531 1478.640625 C 1011.871094 1476.621094 1014.421875 1475.058594 1017.398438 1473.960938 C 1020.378906 1472.871094 1023.671875 1472.320312 1027.261719 1472.320312 C 1028.230469 1472.320312 1029.191406 1472.359375 1030.160156 1472.429688 C 1031.128906 1472.511719 1032.058594 1472.609375 1032.941406 1472.75 C 1033.820312 1472.890625 1034.628906 1473.050781 1035.378906 1473.25 C 1036.128906 1473.441406 1036.75 1473.640625 1037.261719 1473.851562 L 1037.261719 1478.449219 C 1035.941406 1478.03125 1034.421875 1477.671875 1032.699219 1477.378906 C 1030.988281 1477.089844 1029.269531 1476.949219 1027.550781 1476.949219 C 1025.039062 1476.949219 1022.648438 1477.320312 1020.371094 1478.050781 C 1018.089844 1478.789062 1016.089844 1479.898438 1014.351562 1481.390625 C 1012.609375 1482.878906 1011.21875 1484.75 1010.191406 1487 C 1009.148438 1489.25 1008.628906 1491.878906 1008.628906 1494.898438 C 1008.628906 1497.871094 1009.058594 1500.421875 1009.921875 1502.570312 C 1010.78125 1504.71875 1012 1506.5 1013.570312 1507.910156 C 1015.140625 1509.308594 1017.050781 1510.351562 1019.289062 1511.019531 C 1021.53125 1511.691406 1024.019531 1512.03125 1026.769531 1512.03125 C 1028.039062 1512.03125 1029.289062 1511.96875 1030.53125 1511.839844 C 1031.769531 1511.710938 1032.871094 1511.53125 1033.828125 1511.289062 L 1033.828125 1498.578125 "/>
<path fill-rule="nonzero" fill="rgb(74.113464%, 73.643494%, 73.75946%)" fill-opacity="1" d="M 1065.921875 1479.761719 C 1063.949219 1485.078125 1062.070312 1489.921875 1060.28125 1494.269531 L 1058.621094 1498.289062 L 1073.269531 1498.289062 L 1071.589844 1494.269531 C 1069.78125 1489.839844 1067.929688 1485.011719 1066.050781 1479.761719 Z M 1045.648438 1515.859375 L 1063.640625 1473.121094 L 1068.300781 1473.121094 L 1086.289062 1515.859375 L 1080.449219 1515.859375 L 1075.171875 1502.988281 L 1056.699219 1502.988281 L 1051.429688 1515.859375 L 1045.648438 1515.859375 "/>
<path fill-rule="nonzero" fill="rgb(74.113464%, 73.643494%, 73.75946%)" fill-opacity="1" d="M 1115.75 1496.949219 C 1118.449219 1500.71875 1121.128906 1504.601562 1123.769531 1508.578125 L 1123.96875 1508.578125 C 1123.679688 1504.421875 1123.539062 1500.191406 1123.539062 1495.859375 L 1123.539062 1473.121094 L 1128.949219 1473.121094 L 1128.949219 1515.859375 L 1123.570312 1515.859375 L 1106.238281 1492.03125 C 1103.238281 1487.878906 1100.570312 1484 1098.210938 1480.398438 L 1098.019531 1480.398438 C 1098.300781 1484.300781 1098.449219 1488.851562 1098.449219 1494.039062 L 1098.449219 1515.859375 L 1093.058594 1515.859375 L 1093.058594 1473.121094 L 1098.410156 1473.121094 L 1115.75 1496.949219 "/>
<path fill-rule="nonzero" fill="rgb(74.113464%, 73.643494%, 73.75946%)" fill-opacity="1" d="M 1172.609375 1491.609375 L 1195.75 1491.609375 L 1195.75 1473.121094 L 1201.128906 1473.121094 L 1201.128906 1515.859375 L 1195.75 1515.859375 L 1195.75 1496.308594 L 1172.609375 1496.308594 L 1172.609375 1515.859375 L 1167.21875 1515.859375 L 1167.21875 1473.121094 L 1172.609375 1473.121094 L 1172.609375 1491.609375 "/>
<path fill-rule="nonzero" fill="rgb(74.113464%, 73.643494%, 73.75946%)" fill-opacity="1" d="M 1217.738281 1511.171875 L 1240.390625 1511.171875 L 1240.390625 1515.859375 L 1212.359375 1515.859375 L 1212.359375 1473.121094 L 1239.171875 1473.121094 L 1239.171875 1477.808594 L 1217.738281 1477.808594 L 1217.738281 1491.609375 L 1236.789062 1491.609375 L 1236.789062 1496.308594 L 1217.738281 1496.308594 L 1217.738281 1511.171875 "/>
<path fill-rule="nonzero" fill="rgb(74.113464%, 73.643494%, 73.75946%)" fill-opacity="1" d="M 1255.019531 1477.808594 L 1255.019531 1493.46875 L 1260.339844 1493.46875 C 1261.988281 1493.46875 1263.398438 1493.410156 1264.558594 1493.308594 C 1265.730469 1493.199219 1266.78125 1493.011719 1267.699219 1492.730469 C 1269.570312 1492.179688 1271.011719 1491.289062 1272.03125 1490.078125 C 1273.039062 1488.871094 1273.539062 1487.28125 1273.539062 1485.320312 C 1273.519531 1483.488281 1273.039062 1482.011719 1272.089844 1480.898438 C 1271.140625 1479.78125 1269.828125 1478.96875 1268.160156 1478.480469 C 1267.371094 1478.25 1266.421875 1478.078125 1265.320312 1477.96875 C 1264.21875 1477.871094 1262.820312 1477.808594 1261.128906 1477.808594 Z M 1255.019531 1498.160156 L 1255.019531 1515.859375 L 1249.640625 1515.859375 L 1249.640625 1473.121094 L 1261.078125 1473.121094 C 1263.019531 1473.121094 1264.660156 1473.191406 1266.011719 1473.320312 C 1267.371094 1473.460938 1268.601562 1473.679688 1269.71875 1473.980469 C 1272.800781 1474.789062 1275.160156 1476.171875 1276.78125 1478.121094 C 1278.410156 1480.070312 1279.21875 1482.5 1279.21875 1485.421875 C 1279.21875 1487.140625 1278.941406 1488.691406 1278.371094 1490.050781 C 1277.789062 1491.410156 1276.988281 1492.589844 1275.949219 1493.601562 C 1274.921875 1494.601562 1273.679688 1495.421875 1272.238281 1496.058594 C 1270.800781 1496.691406 1269.199219 1497.160156 1267.441406 1497.460938 L 1267.441406 1497.589844 L 1280.511719 1515.859375 L 1275.128906 1515.859375 L 1261.53125 1498.160156 L 1255.019531 1498.160156 "/>
<path fill-rule="nonzero" fill="rgb(74.113464%, 73.643494%, 73.75946%)" fill-opacity="1" d="M 1295.039062 1511.171875 L 1317.691406 1511.171875 L 1317.691406 1515.859375 L 1289.660156 1515.859375 L 1289.660156 1473.121094 L 1316.46875 1473.121094 L 1316.46875 1477.808594 L 1295.039062 1477.808594 L 1295.039062 1491.609375 L 1314.089844 1491.609375 L 1314.089844 1496.308594 L 1295.039062 1496.308594 L 1295.039062 1511.171875 "/>
<path fill-rule="nonzero" fill="rgb(13.729858%, 12.159729%, 12.548828%)" fill-opacity="1" d="M 814.910156 1381.191406 C 823.925781 1392.699219 832.832031 1404.539062 841.628906 1416.691406 L 842.285156 1416.691406 C 841.335938 1404.011719 840.859375 1391.078125 840.859375 1377.878906 L 840.859375 1308.429688 L 858.890625 1308.429688 L 858.890625 1438.929688 L 840.96875 1438.929688 L 783.246094 1366.171875 C 773.277344 1353.488281 764.375 1341.660156 756.53125 1330.671875 L 755.871094 1330.671875 C 756.824219 1342.570312 757.300781 1356.449219 757.300781 1372.320312 L 757.300781 1438.929688 L 739.382812 1438.929688 L 739.382812 1308.429688 L 757.191406 1308.429688 L 814.910156 1381.191406 "/>
<path fill-rule="nonzero" fill="rgb(39.677429%, 38.580322%, 38.851929%)" fill-opacity="1" d="M 1167.828125 1381.191406 C 1176.839844 1392.699219 1185.75 1404.539062 1194.539062 1416.691406 L 1195.199219 1416.691406 C 1194.25 1404.011719 1193.769531 1391.078125 1193.769531 1377.878906 L 1193.769531 1308.429688 L 1211.808594 1308.429688 L 1211.808594 1438.929688 L 1193.878906 1438.929688 L 1136.160156 1366.171875 C 1126.199219 1353.488281 1117.289062 1341.660156 1109.449219 1330.671875 L 1108.789062 1330.671875 C 1109.738281 1342.570312 1110.21875 1356.449219 1110.21875 1372.320312 L 1110.21875 1438.929688 L 1092.300781 1438.929688 L 1092.300781 1308.429688 L 1110.109375 1308.429688 L 1167.828125 1381.191406 "/>
<path fill-rule="nonzero" fill="rgb(39.677429%, 38.580322%, 38.851929%)" fill-opacity="1" d="M 1470.058594 1438.929688 L 1461.820312 1438.929688 L 1424.761719 1361 C 1419.628906 1350.269531 1414.5 1338.601562 1409.371094 1325.988281 L 1408.488281 1325.988281 C 1409.519531 1344.128906 1410.03125 1360.738281 1410.03125 1375.828125 L 1410.03125 1438.929688 L 1392.109375 1438.929688 L 1392.109375 1308.429688 L 1417.949219 1308.429688 L 1452.578125 1382.269531 C 1456.539062 1390.71875 1460.898438 1400.890625 1465.660156 1412.789062 L 1466.210938 1412.789062 C 1471.488281 1399.589844 1475.851562 1389.421875 1479.300781 1382.269531 L 1513.929688 1308.429688 L 1539.769531 1308.429688 L 1539.769531 1438.929688 L 1521.839844 1438.929688 L 1521.839844 1375.828125 C 1521.839844 1361.070312 1522.359375 1344.460938 1523.378906 1325.988281 L 1522.5 1325.988281 C 1517.078125 1339.320312 1511.949219 1350.988281 1507.109375 1361 L 1470.058594 1438.929688 "/>
<path fill-rule="nonzero" fill="rgb(39.677429%, 38.580322%, 38.851929%)" fill-opacity="1" d="M 1595.070312 1424.589844 L 1670.488281 1424.589844 L 1670.488281 1438.929688 L 1577.148438 1438.929688 L 1577.148438 1308.429688 L 1666.421875 1308.429688 L 1666.421875 1322.769531 L 1595.070312 1322.769531 L 1595.070312 1364.898438 L 1658.5 1364.898438 L 1658.5 1379.238281 L 1595.070312 1379.238281 L 1595.070312 1424.589844 "/>
<path fill-rule="nonzero" fill="rgb(13.729858%, 12.159729%, 12.548828%)" fill-opacity="1" d="M 656.921875 1308.429688 L 641.421875 1308.429688 L 581.503906 1438.929688 L 600.742188 1438.929688 L 643.394531 1342.421875 C 645.242188 1337.96875 647.109375 1333.421875 649.007812 1328.71875 L 649.445312 1328.71875 C 655.703125 1344.730469 661.851562 1359.5 667.886719 1373.011719 L 673.460938 1385.289062 L 635.839844 1385.289062 L 629.503906 1399.628906 L 679.816406 1399.628906 L 697.382812 1438.929688 L 716.84375 1438.929688 L 656.921875 1308.429688 "/>
<path fill-rule="nonzero" fill="rgb(13.729858%, 12.159729%, 12.548828%)" fill-opacity="1" d="M 522.351562 1383.140625 L 522.351562 1382.75 C 528.214844 1381.839844 533.546875 1380.410156 538.351562 1378.460938 C 543.148438 1376.511719 547.273438 1374.011719 550.71875 1370.949219 C 554.164062 1367.898438 556.835938 1364.289062 558.742188 1360.128906 C 560.648438 1355.96875 561.601562 1351.25 561.601562 1345.980469 C 561.601562 1337.078125 558.894531 1329.648438 553.476562 1323.699219 C 548.058594 1317.75 540.222656 1313.539062 529.976562 1311.070312 C 526.242188 1310.160156 522.121094 1309.488281 517.617188 1309.070312 C 513.117188 1308.648438 507.644531 1308.429688 501.199219 1308.429688 L 463.09375 1308.429688 L 463.09375 1438.929688 L 481.015625 1438.929688 L 481.015625 1322.769531 L 501.355469 1322.769531 C 506.996094 1322.769531 511.652344 1322.929688 515.316406 1323.261719 C 518.980469 1323.578125 522.132812 1324.101562 524.773438 1324.820312 C 530.339844 1326.320312 534.703125 1328.769531 537.855469 1332.179688 C 541.003906 1335.601562 542.617188 1340.101562 542.691406 1345.691406 C 542.691406 1351.671875 541.003906 1356.519531 537.636719 1360.21875 C 534.261719 1363.929688 529.460938 1366.628906 523.230469 1368.320312 C 520.152344 1369.160156 516.671875 1369.75 512.789062 1370.070312 C 508.902344 1370.398438 504.210938 1370.558594 498.714844 1370.558594 L 491.335938 1370.558594 L 491.335938 1384.898438 L 502.671875 1384.898438 L 547.96875 1438.929688 L 565.890625 1438.929688 L 522.351562 1383.140625 "/>
<path fill-rule="nonzero" fill="rgb(13.729858%, 12.159729%, 12.548828%)" fill-opacity="1" d="M 428.570312 1389.339844 C 427.179688 1385.988281 425.179688 1383.089844 422.578125 1380.660156 C 419.976562 1378.21875 416.863281 1376.21875 413.234375 1374.660156 C 409.605469 1373.101562 405.519531 1372.019531 400.976562 1371.441406 L 400.976562 1371.050781 C 405.226562 1369.75 408.835938 1368.121094 411.804688 1366.171875 C 414.773438 1364.21875 417.191406 1362.011719 419.0625 1359.539062 C 420.929688 1357.070312 422.285156 1354.371094 423.128906 1351.449219 C 423.972656 1348.519531 424.394531 1345.460938 424.394531 1342.28125 C 424.394531 1338.308594 423.6875 1334.640625 422.273438 1331.261719 C 420.863281 1327.878906 418.851562 1324.851562 416.242188 1322.191406 C 413.632812 1319.519531 410.464844 1317.230469 406.730469 1315.308594 C 403 1313.390625 398.851562 1311.878906 394.289062 1310.769531 C 392.550781 1310.378906 390.699219 1310.039062 388.746094 1309.75 C 386.789062 1309.460938 384.667969 1309.210938 382.386719 1309.019531 C 380.105469 1308.820312 377.605469 1308.679688 374.886719 1308.578125 C 372.167969 1308.480469 369.144531 1308.429688 365.8125 1308.429688 L 329.511719 1308.429688 L 329.511719 1438.929688 L 347.433594 1438.929688 L 347.433594 1322.769531 L 367.554688 1322.769531 C 372.535156 1322.769531 376.859375 1322.921875 380.527344 1323.210938 C 384.191406 1323.5 387.414062 1324.011719 390.199219 1324.71875 C 395.84375 1326.21875 399.984375 1328.488281 402.625 1331.550781 C 405.261719 1334.609375 406.582031 1338.539062 406.582031 1343.351562 C 406.582031 1348.03125 405.316406 1352.101562 402.789062 1355.539062 C 400.261719 1358.988281 396.246094 1361.519531 390.75 1363.148438 C 388.699219 1363.730469 386.390625 1364.171875 383.824219 1364.46875 C 381.257812 1364.761719 378.21875 1364.898438 374.699219 1364.898438 L 357 1364.898438 L 357 1379.238281 L 375.46875 1379.238281 C 379.648438 1379.238281 383.144531 1379.339844 385.96875 1379.53125 C 388.789062 1379.730469 391.300781 1380.058594 393.5 1380.511719 C 397.164062 1381.21875 400.222656 1382.230469 402.679688 1383.53125 C 405.136719 1384.828125 407.113281 1386.351562 408.617188 1388.070312 C 410.117188 1389.789062 411.199219 1391.738281 411.859375 1393.921875 C 412.519531 1396.101562 412.851562 1398.421875 412.851562 1400.890625 C 412.851562 1403.039062 412.535156 1405.148438 411.914062 1407.230469 C 411.292969 1409.308594 410.265625 1411.28125 408.835938 1413.128906 C 407.40625 1414.988281 405.519531 1416.679688 403.175781 1418.210938 C 400.828125 1419.730469 397.96875 1420.980469 394.597656 1421.960938 C 391.519531 1422.871094 387.78125 1423.539062 383.386719 1423.960938 C 378.988281 1424.378906 374.222656 1424.589844 369.09375 1424.589844 L 357 1424.589844 L 357 1438.929688 L 367.144531 1438.929688 C 374.539062 1438.929688 380.882812 1438.671875 386.175781 1438.148438 C 391.46875 1437.628906 396.292969 1436.71875 400.644531 1435.421875 C 406.296875 1433.730469 411.027344 1431.550781 414.835938 1428.878906 C 418.640625 1426.21875 421.722656 1423.308594 424.078125 1420.160156 C 426.4375 1417 428.121094 1413.75 429.136719 1410.398438 C 430.152344 1407.050781 430.660156 1403.851562 430.660156 1400.800781 C 430.660156 1396.5 429.964844 1392.691406 428.570312 1389.339844 "/>
<path fill-rule="nonzero" fill="rgb(13.729858%, 12.159729%, 12.548828%)" fill-opacity="1" d="M 1012.199219 1351.980469 C 1010.109375 1345.449219 1006.960938 1339.558594 1002.75 1334.328125 C 998.53125 1329.101562 993.21875 1324.558594 986.808594 1320.71875 C 980.390625 1316.890625 972.898438 1313.898438 964.324219 1311.75 C 959.410156 1310.519531 954.097656 1309.648438 948.382812 1309.171875 C 942.664062 1308.679688 936.46875 1308.429688 929.800781 1308.429688 L 896.160156 1308.429688 L 896.160156 1438.929688 L 914.078125 1438.929688 L 914.078125 1322.769531 L 927.78125 1322.769531 C 934.691406 1322.769531 940.890625 1323 946.390625 1323.449219 C 951.886719 1323.910156 956.859375 1324.761719 961.316406 1325.988281 C 972.976562 1329.238281 981.929688 1334.769531 988.167969 1342.570312 C 994.40625 1350.371094 997.527344 1360.550781 997.527344 1373.101562 C 997.527344 1385.78125 994.40625 1396.179688 988.167969 1404.308594 C 981.929688 1412.429688 972.976562 1418.121094 961.316406 1421.378906 C 956.859375 1422.609375 951.886719 1423.460938 946.390625 1423.910156 C 940.890625 1424.371094 934.691406 1424.589844 927.78125 1424.589844 L 924.066406 1424.589844 L 924.066406 1438.929688 L 929.472656 1438.929688 C 936.140625 1438.929688 942.335938 1438.691406 948.050781 1438.199219 C 953.769531 1437.710938 959.082031 1436.851562 963.992188 1435.609375 C 972.570312 1433.46875 980.0625 1430.449219 986.476562 1426.539062 C 992.890625 1422.640625 998.242188 1418.011719 1002.53125 1412.648438 C 1006.820312 1407.28125 1010.019531 1401.25 1012.148438 1394.550781 C 1014.269531 1387.859375 1015.339844 1380.699219 1015.339844 1373.101562 C 1015.339844 1365.558594 1014.289062 1358.519531 1012.199219 1351.980469 "/>
<path fill-rule="nonzero" fill="rgb(39.677429%, 38.580322%, 38.851929%)" fill-opacity="1" d="M 1301.738281 1328.71875 C 1299.839844 1333.421875 1297.96875 1337.96875 1296.121094 1342.421875 L 1302.179688 1328.71875 L 1301.738281 1328.71875 "/>
<path fill-rule="nonzero" fill="rgb(39.677429%, 38.580322%, 38.851929%)" fill-opacity="1" d="M 1309.648438 1308.429688 L 1294.148438 1308.429688 L 1234.230469 1438.929688 L 1253.46875 1438.929688 L 1296.121094 1342.421875 C 1297.96875 1337.96875 1299.839844 1333.421875 1301.738281 1328.71875 L 1302.179688 1328.71875 C 1308.441406 1344.730469 1314.578125 1359.5 1320.621094 1373.011719 L 1326.191406 1385.289062 L 1286 1385.289062 L 1279.660156 1399.628906 L 1332.550781 1399.628906 L 1350.109375 1438.929688 L 1369.570312 1438.929688 L 1309.648438 1308.429688 "/>
<path fill-rule="nonzero" fill="rgb(74.113464%, 73.643494%, 73.75946%)" fill-opacity="1" d="M 1192.28125 722.910156 C 1202.050781 720.628906 1220.28125 717.609375 1242.398438 708.621094 C 1238.980469 708.441406 1235.53125 708.238281 1231.960938 707.941406 C 1217.148438 706.671875 1203.808594 704.460938 1192.179688 701.929688 C 1204.691406 702.640625 1217.679688 703.109375 1231.148438 703.300781 C 1239.078125 703.410156 1246.789062 703.378906 1254.390625 703.289062 C 1259.449219 700.851562 1264.640625 698.121094 1269.941406 694.96875 C 1283.730469 686.800781 1295.429688 677.839844 1305.25 669.019531 C 1300.699219 668.839844 1296.039062 668.570312 1291.21875 668.160156 C 1276.410156 666.890625 1263.070312 664.679688 1251.441406 662.148438 C 1263.941406 662.859375 1276.941406 663.328125 1290.410156 663.519531 C 1297.460938 663.621094 1304.339844 663.601562 1311.140625 663.539062 C 1323.410156 651.699219 1332.261719 640.5 1337.960938 632.320312 C 1341.691406 626.980469 1345.171875 621.429688 1348.539062 615.78125 C 1345.980469 615.839844 1343.460938 615.941406 1340.820312 615.929688 C 1325.960938 615.929688 1312.46875 614.871094 1300.660156 613.339844 C 1313.179688 612.980469 1326.160156 612.351562 1339.589844 611.378906 C 1343.679688 611.089844 1347.679688 610.75 1351.679688 610.410156 C 1362.910156 590.730469 1372.449219 569.75 1382.03125 549.640625 C 1333.449219 580.851562 1284.871094 612.070312 1236.289062 643.28125 C 1219.621094 653.988281 1202.390625 665.148438 1180.671875 682.238281 C 1163.828125 695.488281 1131.691406 721.019531 1103.359375 755.078125 C 1083.019531 779.539062 1051.5 824.179688 1031.691406 892.148438 C 1093.578125 769.269531 1150.558594 732.679688 1192.28125 722.910156 "/>
<path fill-rule="nonzero" fill="rgb(91.363525%, 91.20636%, 91.246033%)" fill-opacity="1" d="M 1195.96875 655.738281 C 1214.699219 641.738281 1223.648438 636.699219 1287.5 598.078125 C 1357.859375 555.519531 1374.011719 545.300781 1395.359375 526.640625 C 1414.710938 509.71875 1428.960938 494.058594 1438.058594 483.339844 C 1433.160156 487.230469 1425.539062 493.078125 1415.808594 499.609375 C 1369.851562 530.519531 1336.230469 537.140625 1290.148438 556.109375 C 1286.269531 557.710938 1282.359375 559.320312 1278.441406 560.960938 C 1277.351562 563.269531 1276.261719 565.539062 1275.191406 567.890625 C 1270.441406 578.320312 1266.140625 588.511719 1262.238281 598.398438 C 1264.078125 588.480469 1266.859375 577.371094 1271.058594 565.5 C 1271.269531 564.910156 1271.5 564.378906 1271.710938 563.808594 C 1252.160156 572.171875 1231.890625 581.808594 1210.339844 596.039062 C 1209.910156 597.300781 1209.46875 598.511719 1209.039062 599.78125 C 1205.410156 610.601562 1202.191406 621.140625 1199.351562 631.351562 C 1200.101562 621.980469 1201.589844 611.480469 1204.160156 600.230469 C 1202.289062 601.53125 1200.398438 602.859375 1198.511719 604.230469 C 1190.039062 610.378906 1171.519531 624.480469 1150.648438 646.980469 C 1147.289062 657.078125 1144.269531 666.949219 1141.601562 676.519531 C 1142.171875 669.449219 1143.171875 661.730469 1144.710938 653.558594 C 1133.539062 666.21875 1121.921875 681.171875 1110.96875 698.589844 C 1091.011719 730.320312 1079.441406 760.28125 1072.460938 783.988281 C 1094.339844 751.378906 1116.261719 726.730469 1133.628906 709.28125 C 1138.53125 704.359375 1161.328125 681.648438 1195.96875 655.738281 "/>
<g clip-path="url(#clip-0)">
<g clip-path="url(#clip-1)">
<g clip-path="url(#clip-2)">
<path fill-rule="nonzero" fill="url(#linear-pattern-0)" d="M 1194.128906 1044.042969 L 1095.316406 761.390625 L 914.179688 824.71875 L 1012.992188 1107.367188 Z M 1194.128906 1044.042969 "/>
</g>
</g>
</g>
<g clip-path="url(#clip-3)">
<g clip-path="url(#clip-4)">
<g clip-path="url(#clip-5)">
<path fill-rule="nonzero" fill="url(#linear-pattern-1)" d="M 1682.046875 1159.609375 L 1422.203125 416.332031 L 317.957031 802.371094 L 577.800781 1545.648438 Z M 1682.046875 1159.609375 "/>
</g>
</g>
</g>
</svg>
